<?xml version="1.0" encoding="UTF-8" standalone="no"?>
<!DOCTYPE svg PUBLIC "-//W3C//DTD SVG 1.1//EN" "http://www.w3.org/Graphics/SVG/1.1/DTD/svg11.dtd">
<!-- 由 Microsoft Visio, SVG Export 生成 绘图3.svg Page-1 -->
<svg xmlns="http://www.w3.org/2000/svg" xmlns:xlink="http://www.w3.org/1999/xlink" xmlns:ev="http://www.w3.org/2001/xml-events"
		xmlns:v="http://schemas.microsoft.com/visio/2003/SVGExtensions/" width="16.0354in" height="11.6929in"
		viewBox="0 0 1154.55 841.89" xml:space="preserve" color-interpolation-filters="sRGB" class="st23">
	<v:documentProperties v:langID="2052" v:metric="true" v:viewMarkup="false">
		<v:userDefs>
			<v:ud v:nameU="msvNoAutoConnect" v:val="VT0(1):26"/>
		</v:userDefs>
	</v:documentProperties>

	<style type="text/css">
	<![CDATA[
		.st1 {stroke:#000000;stroke-linecap:round;stroke-linejoin:round;stroke-width:2.25}
		.st2 {fill:none}
		.st3 {stroke:#000000;stroke-width:1}
		.st4 {stroke:#000000;stroke-linecap:round;stroke-linejoin:round;stroke-width:1.5}
		.st5 {fill:none;stroke:none;stroke-width:1}
		.st6 {fill:#000000;font-family:Calibri;font-size:1.00001em}
		.st7 {fill:none;stroke:none;stroke-width:0.25}
		.st8 {fill:none;stroke:#000000;stroke-width:0.25}
		.st9 {fill:#000000;font-family:Calibri;font-size:1.5em}
		.st10 {font-family:黑体;font-size:1em}
		.st11 {fill:#000000;font-family:Calibri;font-size:0.75em}
		.st12 {fill:#000000;font-family:黑体;font-size:0.75em}
		.st13 {fill:none;stroke:#000000;stroke-width:1;visibility:hidden}
		.st14 {stroke:#000000;stroke-linecap:round;stroke-linejoin:round;stroke-width:1}
		.st15 {marker-end:url(#mrkr13-81);stroke:#000000;stroke-linecap:round;stroke-linejoin:round;stroke-width:1}
		.st16 {fill:#000000;fill-opacity:1;stroke:#000000;stroke-opacity:1;stroke-width:0.35714285714286}
		.st17 {fill:none;stroke:#000000;stroke-width:1}
		.st18 {fill:none;stroke:#ff0000;stroke-width:1;visibility:hidden}
		.st19 {stroke:#ff0000;stroke-width:1}
		.st20 {stroke:#ff0000;stroke-linecap:round;stroke-linejoin:round;stroke-width:1}
		.st21 {marker-end:url(#mrkr13-202);stroke:#ff0000;stroke-linecap:round;stroke-linejoin:round;stroke-width:1}
		.st22 {fill:#ff0000;fill-opacity:1;stroke:#ff0000;stroke-opacity:1;stroke-width:0.35714285714286}
		.st23 {fill:none;fill-rule:evenodd;font-size:12px;overflow:visible;stroke-linecap:square;stroke-miterlimit:3}
	]]>
	</style>

	<defs id="Markers">
		<g id="lend13">
			<path d="M 3 1 L 0 0 L 3 -1 L 3 1 " style="stroke:none"/>
		</g>
		<marker id="mrkr13-81" class="st16" v:arrowType="13" v:arrowSize="1" v:setback="8.4" refX="-8.4" orient="auto"
				markerUnits="strokeWidth" overflow="visible">
			<use xlink:href="#lend13" transform="scale(-2.8,-2.8) "/>
		</marker>
		<marker id="mrkr13-202" class="st22" v:arrowType="13" v:arrowSize="1" v:setback="8.4" refX="-8.4" orient="auto"
				markerUnits="strokeWidth" overflow="visible">
			<use xlink:href="#lend13" transform="scale(-2.8,-2.8) "/>
		</marker>
	</defs>
	<g v:mID="0" v:index="1" v:groupContext="foregroundPage">
		<title>页-1</title>
		<v:pageProperties v:drawingScale="0.0393701" v:pageScale="0.0393701" v:drawingUnits="24" v:shadowOffsetX="8.50394"
				v:shadowOffsetY="-8.50394"/>
		<v:layer v:name="电气" v:index="0"/>
		<v:layer v:name="连接线" v:index="1"/>
		<g id="shape1-1" v:mID="1" v:groupContext="shape" transform="translate(147.924,-551.356)">
			<title>工作表.1</title>
			<path d="M0 841.89 L364.03 841.89" class="st1"/>
		</g>
		<g id="group2-4" transform="translate(269.157,-504.199)" v:mID="2" v:groupContext="group" v:layerMember="0">
			<v:custProps>
				<v:cp v:nameU="Label" v:lbl="标签" v:type="0" v:format="@" v:sortKey="" v:invis="false" v:ask="false" v:langID="2052"
						v:val="VT4()"/>
			</v:custProps>
			<v:userDefs>
				<v:ud v:nameU="CH1"/>
				<v:ud v:nameU="visVersion" v:val="VT0(15):26"/>
				<v:ud v:nameU="visDescription" v:val="VT4(带三个绕组的变压器。)"/>
			</v:userDefs>
			<title>三绕组变压器.7</title>
			<g id="shape3-5" v:mID="3" v:groupContext="shape" v:layerMember="0">
				<title>工作表.3</title>
				<path d="M15.98 831.15 A8.19271 8.19271 0 0 1 12.75 830.99 A8.19271 8.19271 -180 0 0 12.29 833.7 A8.19271 8.19271
							 -180 0 0 14.34 839.12 A8.19271 8.19271 -180 0 0 16.39 833.7 A8.19271 8.19271 -180 0 0 15.98 831.15 ZM15.98
							 831.15 A8.19271 8.19271 -180 0 0 14.34 828.28 A8.19271 8.19271 -180 0 0 12.75 830.99 A8.19271 8.19271
							 -180 0 0 15.98 831.15 ZM15.98 831.15 A8.19271 8.19271 0 0 1 16.39 833.7 A8.19271 8.19271 0 0 1 14.34
							 839.12 A8.19271 8.19271 -180 0 0 28.67 833.7 A8.19271 8.19271 -180 0 0 22.48 825.75 A8.19271 8.19271
							 0 0 1 15.98 831.15 ZM15.98 831.15 A8.19271 8.19271 -180 0 0 22.48 825.75 A8.19271 8.19271 -180 0 0 14.34
							 828.28 A8.19271 8.19271 0 0 1 15.98 831.15 ZM22.48 825.75 A8.19271 8.19271 -180 0 0 22.94 823.05 A8.19271
							 8.19271 -180 0 0 6.55 823.05 A8.19271 8.19271 -180 0 0 6.96 825.6 A8.19271 8.19271 0 0 1 14.34 828.28
							 A8.19271 8.19271 0 0 1 22.48 825.75 ZM12.75 830.99 A8.19271 8.19271 0 0 1 6.96 825.6 A8.19271 8.19271
							 -180 0 0 0 833.7 A8.19271 8.19271 -180 0 0 14.34 839.12 A8.19271 8.19271 0 0 1 12.29 833.7 A8.19271
							 8.19271 0 0 1 12.75 830.99 ZM12.75 830.99 A8.19271 8.19271 0 0 1 14.34 828.28 A8.19271 8.19271 -180
							 0 0 6.96 825.6 A8.19271 8.19271 -180 0 0 12.75 830.99 Z" class="st2"/>
				<path d="M15.98 831.15 A8.19271 8.19271 0 0 1 12.75 830.99 A8.19271 8.19271 -180 0 0 12.29 833.7 A8.19271 8.19271
							 -180 0 0 14.34 839.12 A8.19271 8.19271 -180 0 0 16.39 833.7 A8.19271 8.19271 -180 0 0 15.98 831.15"
						class="st3"/>
				<path d="M15.98 831.15 A8.19271 8.19271 -180 0 0 14.34 828.28 A8.19271 8.19271 -180 0 0 12.75 830.99 A8.19271 8.19271
							 -180 0 0 15.98 831.15" class="st3"/>
				<path d="M15.98 831.15 A8.19271 8.19271 0 0 1 16.39 833.7 A8.19271 8.19271 0 0 1 14.34 839.12 A8.19271 8.19271 -180
							 0 0 28.67 833.7 A8.19271 8.19271 -180 0 0 22.48 825.75 A8.19271 8.19271 0 0 1 15.98 831.15"
						class="st3"/>
				<path d="M15.98 831.15 A8.19271 8.19271 -180 0 0 22.48 825.75 A8.19271 8.19271 -180 0 0 14.34 828.28 A8.19271 8.19271
							 0 0 1 15.98 831.15" class="st3"/>
				<path d="M22.48 825.75 A8.19271 8.19271 -180 0 0 22.94 823.05 A8.19271 8.19271 -180 0 0 6.55 823.05 A8.19271 8.19271
							 -180 0 0 6.96 825.6 A8.19271 8.19271 0 0 1 14.34 828.28 A8.19271 8.19271 0 0 1 22.48 825.75"
						class="st3"/>
				<path d="M12.75 830.99 A8.19271 8.19271 0 0 1 6.96 825.6 A8.19271 8.19271 -180 0 0 0 833.7 A8.19271 8.19271 -180
							 0 0 14.34 839.12 A8.19271 8.19271 0 0 1 12.29 833.7 A8.19271 8.19271 0 0 1 12.75 830.99" class="st3"/>
				<path d="M12.75 830.99 A8.19271 8.19271 0 0 1 14.34 828.28 A8.19271 8.19271 -180 0 0 6.96 825.6 A8.19271 8.19271
							 -180 0 0 12.75 830.99" class="st3"/>
				<path d="M14.34 814.85 L14.34 808.09" class="st3"/>
				<path d="M7.89 841.89 L7.89 848.65" class="st3"/>
				<path d="M20.79 841.89 L20.79 848.65" class="st3"/>
			</g>
		</g>
		<g id="shape4-17" v:mID="4" v:groupContext="shape" transform="translate(146.462,-475.81)">
			<title>工作表.4</title>
			<path d="M0 841.89 L364.94 841.89" class="st4"/>
		</g>
		<g id="shape5-20" v:mID="5" v:groupContext="shape" transform="translate(105.242,-544.665)">
			<title>工作表.5</title>
			<desc>220kV</desc>
			<v:textBlock v:margins="rect(4,4,4,4)" v:tabSpace="42.5197"/>
			<v:textRect cx="21.1406" cy="832.677" width="42.29" height="18.4252"/>
			<rect x="0" y="823.465" width="42.2811" height="18.4252" class="st5"/>
			<text x="5.89" y="836.28" class="st6" v:langID="2052"><v:paragraph v:horizAlign="1"/><v:tabList/>220kV</text>		</g>
		<g id="shape6-23" v:mID="6" v:groupContext="shape" transform="translate(96.9747,-457.385)">
			<title>工作表.6</title>
			<desc>110kV</desc>
			<v:textBlock v:margins="rect(4,4,4,4)" v:tabSpace="42.5197"/>
			<v:textRect cx="21.1406" cy="832.677" width="42.29" height="18.4252"/>
			<rect x="0" y="823.465" width="42.2811" height="18.4252" class="st7"/>
			<text x="5.89" y="836.28" class="st6" v:langID="2052"><v:paragraph v:horizAlign="1"/><v:tabList/>110kV</text>		</g>
		<g id="shape7-26" v:mID="7" v:groupContext="shape" transform="translate(600.005,-637.795)">
			<title>工作表.7</title>
			<desc>220kV科园站</desc>
			<v:textBlock v:margins="rect(4,4,4,4)" v:tabSpace="42.5197"/>
			<v:textRect cx="57.028" cy="820.63" width="114.06" height="42.5197"/>
			<rect x="0" y="799.37" width="114.056" height="42.5197" class="st8"/>
			<text x="7.15" y="826.62" class="st9" v:langID="2052"><v:paragraph v:horizAlign="1"/><v:tabList/>220kV<tspan
						class="st10">科园站</tspan></text>		</g>
		<g id="shape8-30" v:mID="8" v:groupContext="shape" transform="translate(391.124,-515.513)">
			<title>工作表.8</title>
			<desc>#3主变</desc>
			<v:textBlock v:margins="rect(4,4,4,4)" v:tabSpace="42.5197"/>
			<v:textRect cx="17.5421" cy="832.677" width="35.09" height="18.4252"/>
			<rect x="0" y="823.465" width="35.0841" height="18.4252" class="st7"/>
			<text x="4.02" y="835.67" class="st11" v:langID="2052"><v:paragraph v:horizAlign="1"/><v:tabList/>#3<tspan class="st10">主变</tspan></text>		</g>
		<g id="shape9-34" v:mID="9" v:groupContext="shape" transform="translate(203.166,-385.102)">
			<title>工作表.9</title>
			<desc>科五</desc>
			<v:textBlock v:margins="rect(4,4,4,4)" v:tabSpace="42.5197" v:verticalText="true"/>
			<v:textRect cx="7.83949" cy="813.969" width="15.68" height="55.8425"/>
			<rect x="0" y="786.047" width="15.679" height="55.8425" class="st7"/>
			<text x="7.84" y="804.97" writing-mode="tb-rl" class="st12" v:langID="2052"><v:paragraph v:horizAlign="1"/><v:tabList/>科五</text>		</g>
		<g id="shape10-37" v:mID="10" v:groupContext="shape" transform="translate(265.218,-370.574)">
			<title>工作表.10</title>
			<desc>科铁朝万</desc>
			<v:textBlock v:margins="rect(4,4,4,4)" v:tabSpace="42.5197" v:verticalText="true"/>
			<v:textRect cx="7.83949" cy="804.685" width="15.68" height="74.4095"/>
			<rect x="0" y="767.48" width="15.679" height="74.4095" class="st7"/>
			<text x="7.84" y="786.68" writing-mode="tb-rl" class="st12" v:langID="2052"><v:paragraph v:horizAlign="1"/><v:tabList/>科铁朝万</text>		</g>
		<g id="shape11-40" v:mID="11" v:groupContext="shape" transform="translate(322.624,-401.401)">
			<title>工作表.11</title>
			<desc>科衡</desc>
			<v:textBlock v:margins="rect(4,4,4,4)" v:tabSpace="42.5197" v:verticalText="true"/>
			<v:textRect cx="7.83949" cy="804.685" width="15.68" height="74.4095"/>
			<rect x="0" y="767.48" width="15.679" height="74.4095" class="st7"/>
			<text x="7.84" y="795.68" writing-mode="tb-rl" class="st12" v:langID="2052"><v:paragraph v:horizAlign="1"/><v:tabList/>科衡</text>		</g>
		<g id="shape12-43" v:mID="12" v:groupContext="shape" transform="translate(379.711,-381.535)">
			<title>工作表.12</title>
			<desc>科秀</desc>
			<v:textBlock v:margins="rect(4,4,4,4)" v:tabSpace="42.5197" v:verticalText="true"/>
			<v:textRect cx="7.83949" cy="804.685" width="15.68" height="74.4095"/>
			<rect x="0" y="767.48" width="15.679" height="74.4095" class="st7"/>
			<text x="7.84" y="795.68" writing-mode="tb-rl" class="st12" v:langID="2052"><v:paragraph v:horizAlign="1"/><v:tabList/>科秀</text>		</g>
		<g id="shape15-46" v:mID="15" v:groupContext="shape" transform="translate(161.469,-383.232)">
			<title>工作表.15</title>
			<desc>科尧滨</desc>
			<v:textBlock v:margins="rect(4,4,4,4)" v:tabSpace="42.5197" v:verticalText="true"/>
			<v:textRect cx="7.83949" cy="813.969" width="15.68" height="55.8425"/>
			<rect x="0" y="786.047" width="15.679" height="55.8425" class="st7"/>
			<text x="7.84" y="800.47" writing-mode="tb-rl" class="st12" v:langID="2052"><v:paragraph v:horizAlign="1"/><v:tabList/>科尧滨</text>		</g>
		<g id="group16-49" transform="translate(174.875,-315.653)" v:mID="16" v:groupContext="group">
			<title>工作表.16</title>
			<g id="group17-50" transform="translate(0,-21.2598)" v:mID="17" v:groupContext="group">
				<title>工作表.17</title>
				<g id="group18-51" transform="translate(-837.639,739.544) rotate(-90)" v:mID="18" v:groupContext="group"
						v:layerMember="0">
					<v:userDefs>
						<v:ud v:nameU="Circuit" v:val="VT0(0):26"/>
						<v:ud v:nameU="Fuse" v:val="VT0(0):26"/>
						<v:ud v:nameU="visVersion" v:val="VT0(15):26"/>
						<v:ud v:nameU="visDescription" v:val="VT4(隔离器)"/>
					</v:userDefs>
					<title>隔离器.100</title>
					<g id="shape19-52" v:mID="19" v:groupContext="shape" v:layerMember="0"
							transform="translate(-358.989,86.5481) rotate(-26.5651)">
						<title>工作表.19</title>
						<rect x="0" y="841.04" width="2.12533" height="0.850134" class="st13"/>
					</g>
					<g id="shape20-54" v:mID="20" v:groupContext="shape" v:layerMember="0" transform="translate(16.1507,-2.12533)">
						<title>工作表.20</title>
						<path d="M0 841.89 L4.25 839.76" class="st3"/>
					</g>
					<g id="shape21-57" v:mID="21" v:groupContext="shape" v:layerMember="0" transform="translate(0,-2.12533)">
						<title>工作表.21</title>
						<path d="M20.4 841.89 L36.55 841.89" class="st3"/>
						<path d="M0 841.89 L16.15 841.89" class="st3"/>
						<path d="M20.4 841.46 L20.4 842.31" class="st3"/>
					</g>
				</g>
				<g id="group22-62" transform="translate(-837.639,841.89) rotate(-90)" v:mID="22" v:groupContext="group"
						v:layerMember="0">
					<v:userDefs>
						<v:ud v:nameU="Circuit" v:val="VT0(0):26"/>
						<v:ud v:nameU="Fuse" v:val="VT0(0):26"/>
						<v:ud v:nameU="visVersion" v:val="VT0(15):26"/>
						<v:ud v:nameU="visDescription" v:val="VT4(隔离器)"/>
					</v:userDefs>
					<title>隔离器.120</title>
					<g id="shape23-63" v:mID="23" v:groupContext="shape" v:layerMember="0"
							transform="translate(-358.989,86.5481) rotate(-26.5651)">
						<title>工作表.23</title>
						<rect x="0" y="841.04" width="2.12533" height="0.850134" class="st13"/>
					</g>
					<g id="shape24-65" v:mID="24" v:groupContext="shape" v:layerMember="0" transform="translate(16.1507,-2.12533)">
						<title>工作表.24</title>
						<path d="M0 841.89 L4.25 839.76" class="st3"/>
					</g>
					<g id="shape25-68" v:mID="25" v:groupContext="shape" v:layerMember="0" transform="translate(0,-2.12533)">
						<title>工作表.25</title>
						<path d="M20.4 841.89 L36.55 841.89" class="st3"/>
						<path d="M0 841.89 L16.15 841.89" class="st3"/>
						<path d="M20.4 841.46 L20.4 842.31" class="st3"/>
					</g>
				</g>
				<g id="shape26-73" v:mID="26" v:groupContext="shape" transform="translate(844.015,739.544) rotate(90)">
					<title>工作表.26</title>
					<path d="M0 841.89 L65.79 841.89" class="st14"/>
				</g>
			</g>
			<g id="shape27-76" v:mID="27" v:groupContext="shape" transform="translate(844.015,820.63) rotate(90)">
				<title>工作表.27</title>
				<path d="M0 841.89 L12.86 841.89" class="st15"/>
			</g>
		</g>
		<g id="group28-82" transform="translate(264.815,-617.107)" v:mID="28" v:groupContext="group">
			<title>工作表.28</title>
			<g id="shape29-83" v:mID="29" v:groupContext="shape" transform="translate(2.05931E-06,-1.30112E-06)">
				<title>矩形</title>
				<v:userDefs>
					<v:ud v:nameU="visVersion" v:val="VT0(15):26"/>
					<v:ud v:nameU="visMasterStencil" v:prompt="" v:val="VT4(Basic_M.vssx)"/>
				</v:userDefs>
				<rect x="0" y="812.347" width="46.7574" height="29.5424" class="st17"/>
			</g>
			<g id="shape30-85" v:mID="30" v:groupContext="shape" transform="translate(473.066,1524.08) rotate(147.714)">
				<title>工作表.30</title>
				<path d="M0 841.89 L27.65 841.89" class="st14"/>
			</g>
			<g id="shape31-88" v:mID="31" v:groupContext="shape" transform="translate(496.445,1524.08) rotate(147.714)">
				<title>工作表.31</title>
				<path d="M0 841.89 L55.31 841.89" class="st14"/>
			</g>
			<g id="shape32-91" v:mID="32" v:groupContext="shape" transform="translate(496.445,1538.85) rotate(147.714)">
				<title>工作表.32</title>
				<path d="M0 841.89 L27.65 841.89" class="st14"/>
			</g>
			<g id="shape33-94" v:mID="33" v:groupContext="shape" transform="translate(473.066,100.617) rotate(32.2856)">
				<title>工作表.33</title>
				<path d="M0 841.89 L27.65 841.89" class="st14"/>
			</g>
			<g id="shape34-97" v:mID="34" v:groupContext="shape" transform="translate(449.688,100.617) rotate(32.2857)">
				<title>工作表.34</title>
				<path d="M0 841.89 L55.31 841.89" class="st14"/>
			</g>
			<g id="shape35-100" v:mID="35" v:groupContext="shape" transform="translate(449.688,115.389) rotate(32.2856)">
				<title>工作表.35</title>
				<path d="M0 841.89 L27.65 841.89" class="st14"/>
			</g>
		</g>
		<g id="shape36-103" v:mID="36" v:groupContext="shape" v:layerMember="1" transform="translate(292.698,-617.107)">
			<title>动态连接线.325</title>
			<path d="M-4.5 841.89 L-4.5 907.64 L-9.67 907.64" class="st4"/>
		</g>
		<g id="group37-106" transform="translate(340.864,-314.613)" v:mID="37" v:groupContext="group">
			<title>工作表.37</title>
			<g id="group38-107" transform="translate(0,-21.2598)" v:mID="38" v:groupContext="group">
				<title>工作表.38</title>
				<g id="group39-108" transform="translate(-837.639,739.544) rotate(-90)" v:mID="39" v:groupContext="group"
						v:layerMember="0">
					<v:userDefs>
						<v:ud v:nameU="Circuit" v:val="VT0(0):26"/>
						<v:ud v:nameU="Fuse" v:val="VT0(0):26"/>
						<v:ud v:nameU="visVersion" v:val="VT0(15):26"/>
						<v:ud v:nameU="visDescription" v:val="VT4(隔离器)"/>
					</v:userDefs>
					<title>隔离器.100</title>
					<g id="shape40-109" v:mID="40" v:groupContext="shape" v:layerMember="0"
							transform="translate(-358.989,86.5481) rotate(-26.5651)">
						<title>工作表.40</title>
						<rect x="0" y="841.04" width="2.12533" height="0.850134" class="st13"/>
					</g>
					<g id="shape41-111" v:mID="41" v:groupContext="shape" v:layerMember="0" transform="translate(16.1507,-2.12533)">
						<title>工作表.41</title>
						<path d="M0 841.89 L4.25 839.76" class="st3"/>
					</g>
					<g id="shape42-114" v:mID="42" v:groupContext="shape" v:layerMember="0" transform="translate(0,-2.12533)">
						<title>工作表.42</title>
						<path d="M20.4 841.89 L36.55 841.89" class="st3"/>
						<path d="M0 841.89 L16.15 841.89" class="st3"/>
						<path d="M20.4 841.46 L20.4 842.31" class="st3"/>
					</g>
				</g>
				<g id="group43-119" transform="translate(-837.639,841.89) rotate(-90)" v:mID="43" v:groupContext="group"
						v:layerMember="0">
					<v:userDefs>
						<v:ud v:nameU="Circuit" v:val="VT0(0):26"/>
						<v:ud v:nameU="Fuse" v:val="VT0(0):26"/>
						<v:ud v:nameU="visVersion" v:val="VT0(15):26"/>
						<v:ud v:nameU="visDescription" v:val="VT4(隔离器)"/>
					</v:userDefs>
					<title>隔离器.120</title>
					<g id="shape44-120" v:mID="44" v:groupContext="shape" v:layerMember="0"
							transform="translate(-358.989,86.5481) rotate(-26.5651)">
						<title>工作表.44</title>
						<rect x="0" y="841.04" width="2.12533" height="0.850134" class="st13"/>
					</g>
					<g id="shape45-122" v:mID="45" v:groupContext="shape" v:layerMember="0" transform="translate(16.1507,-2.12533)">
						<title>工作表.45</title>
						<path d="M0 841.89 L4.25 839.76" class="st3"/>
					</g>
					<g id="shape46-125" v:mID="46" v:groupContext="shape" v:layerMember="0" transform="translate(0,-2.12533)">
						<title>工作表.46</title>
						<path d="M20.4 841.89 L36.55 841.89" class="st3"/>
						<path d="M0 841.89 L16.15 841.89" class="st3"/>
						<path d="M20.4 841.46 L20.4 842.31" class="st3"/>
					</g>
				</g>
				<g id="shape47-130" v:mID="47" v:groupContext="shape" transform="translate(844.015,739.544) rotate(90)">
					<title>工作表.47</title>
					<path d="M0 841.89 L65.79 841.89" class="st14"/>
				</g>
			</g>
			<g id="shape48-133" v:mID="48" v:groupContext="shape" transform="translate(844.015,820.63) rotate(90)">
				<title>工作表.48</title>
				<path d="M0 841.89 L12.86 841.89" class="st15"/>
			</g>
		</g>
		<g id="group49-138" transform="translate(396.193,-314.613)" v:mID="49" v:groupContext="group">
			<title>工作表.49</title>
			<g id="group50-139" transform="translate(0,-21.2598)" v:mID="50" v:groupContext="group">
				<title>工作表.50</title>
				<g id="group51-140" transform="translate(-837.639,739.544) rotate(-90)" v:mID="51" v:groupContext="group"
						v:layerMember="0">
					<v:userDefs>
						<v:ud v:nameU="Circuit" v:val="VT0(0):26"/>
						<v:ud v:nameU="Fuse" v:val="VT0(0):26"/>
						<v:ud v:nameU="visVersion" v:val="VT0(15):26"/>
						<v:ud v:nameU="visDescription" v:val="VT4(隔离器)"/>
					</v:userDefs>
					<title>隔离器.100</title>
					<g id="shape52-141" v:mID="52" v:groupContext="shape" v:layerMember="0"
							transform="translate(-358.989,86.5481) rotate(-26.5651)">
						<title>工作表.52</title>
						<rect x="0" y="841.04" width="2.12533" height="0.850134" class="st13"/>
					</g>
					<g id="shape53-143" v:mID="53" v:groupContext="shape" v:layerMember="0" transform="translate(16.1507,-2.12533)">
						<title>工作表.53</title>
						<path d="M0 841.89 L4.25 839.76" class="st3"/>
					</g>
					<g id="shape54-146" v:mID="54" v:groupContext="shape" v:layerMember="0" transform="translate(0,-2.12533)">
						<title>工作表.54</title>
						<path d="M20.4 841.89 L36.55 841.89" class="st3"/>
						<path d="M0 841.89 L16.15 841.89" class="st3"/>
						<path d="M20.4 841.46 L20.4 842.31" class="st3"/>
					</g>
				</g>
				<g id="group55-151" transform="translate(-837.639,841.89) rotate(-90)" v:mID="55" v:groupContext="group"
						v:layerMember="0">
					<v:userDefs>
						<v:ud v:nameU="Circuit" v:val="VT0(0):26"/>
						<v:ud v:nameU="Fuse" v:val="VT0(0):26"/>
						<v:ud v:nameU="visVersion" v:val="VT0(15):26"/>
						<v:ud v:nameU="visDescription" v:val="VT4(隔离器)"/>
					</v:userDefs>
					<title>隔离器.120</title>
					<g id="shape56-152" v:mID="56" v:groupContext="shape" v:layerMember="0"
							transform="translate(-358.989,86.5481) rotate(-26.5651)">
						<title>工作表.56</title>
						<rect x="0" y="841.04" width="2.12533" height="0.850134" class="st13"/>
					</g>
					<g id="shape57-154" v:mID="57" v:groupContext="shape" v:layerMember="0" transform="translate(16.1507,-2.12533)">
						<title>工作表.57</title>
						<path d="M0 841.89 L4.25 839.76" class="st3"/>
					</g>
					<g id="shape58-157" v:mID="58" v:groupContext="shape" v:layerMember="0" transform="translate(0,-2.12533)">
						<title>工作表.58</title>
						<path d="M20.4 841.89 L36.55 841.89" class="st3"/>
						<path d="M0 841.89 L16.15 841.89" class="st3"/>
						<path d="M20.4 841.46 L20.4 842.31" class="st3"/>
					</g>
				</g>
				<g id="shape59-162" v:mID="59" v:groupContext="shape" transform="translate(844.015,739.544) rotate(90)">
					<title>工作表.59</title>
					<path d="M0 841.89 L65.79 841.89" class="st14"/>
				</g>
			</g>
			<g id="shape60-165" v:mID="60" v:groupContext="shape" transform="translate(844.015,820.63) rotate(90)">
				<title>工作表.60</title>
				<path d="M0 841.89 L12.86 841.89" class="st15"/>
			</g>
		</g>
		<g id="group61-170" transform="translate(230.205,-314.613)" v:mID="61" v:groupContext="group">
			<title>工作表.61</title>
			<g id="group62-171" transform="translate(0,-21.2598)" v:mID="62" v:groupContext="group">
				<title>工作表.62</title>
				<g id="group63-172" transform="translate(-837.639,739.544) rotate(-90)" v:mID="63" v:groupContext="group"
						v:layerMember="0">
					<v:userDefs>
						<v:ud v:nameU="Circuit" v:val="VT0(0):26"/>
						<v:ud v:nameU="Fuse" v:val="VT0(0):26"/>
						<v:ud v:nameU="visVersion" v:val="VT0(15):26"/>
						<v:ud v:nameU="visDescription" v:val="VT4(隔离器)"/>
					</v:userDefs>
					<title>隔离器.100</title>
					<g id="shape64-173" v:mID="64" v:groupContext="shape" v:layerMember="0"
							transform="translate(-358.989,86.5481) rotate(-26.5651)">
						<title>工作表.64</title>
						<rect x="0" y="841.04" width="2.12533" height="0.850134" class="st18"/>
					</g>
					<g id="shape65-175" v:mID="65" v:groupContext="shape" v:layerMember="0" transform="translate(16.1507,-2.12533)">
						<title>工作表.65</title>
						<path d="M0 841.89 L4.25 839.76" class="st19"/>
					</g>
					<g id="shape66-178" v:mID="66" v:groupContext="shape" v:layerMember="0" transform="translate(0,-2.12533)">
						<title>工作表.66</title>
						<path d="M20.4 841.89 L36.55 841.89" class="st19"/>
						<path d="M0 841.89 L16.15 841.89" class="st19"/>
						<path d="M20.4 841.46 L20.4 842.31" class="st19"/>
					</g>
				</g>
				<g id="group67-183" transform="translate(-837.639,841.89) rotate(-90)" v:mID="67" v:groupContext="group"
						v:layerMember="0">
					<v:userDefs>
						<v:ud v:nameU="Circuit" v:val="VT0(0):26"/>
						<v:ud v:nameU="Fuse" v:val="VT0(0):26"/>
						<v:ud v:nameU="visVersion" v:val="VT0(15):26"/>
						<v:ud v:nameU="visDescription" v:val="VT4(隔离器)"/>
					</v:userDefs>
					<title>隔离器.120</title>
					<g id="shape68-184" v:mID="68" v:groupContext="shape" v:layerMember="0"
							transform="translate(-358.989,86.5481) rotate(-26.5651)">
						<title>工作表.68</title>
						<rect x="0" y="841.04" width="2.12533" height="0.850134" class="st18"/>
					</g>
					<g id="shape69-186" v:mID="69" v:groupContext="shape" v:layerMember="0" transform="translate(16.1507,-2.12533)">
						<title>工作表.69</title>
						<path d="M0 841.89 L4.25 839.76" class="st19"/>
					</g>
					<g id="shape70-189" v:mID="70" v:groupContext="shape" v:layerMember="0" transform="translate(0,-2.12533)">
						<title>工作表.70</title>
						<path d="M20.4 841.89 L36.55 841.89" class="st19"/>
						<path d="M0 841.89 L16.15 841.89" class="st19"/>
						<path d="M20.4 841.46 L20.4 842.31" class="st19"/>
					</g>
				</g>
				<g id="shape71-194" v:mID="71" v:groupContext="shape" transform="translate(844.015,739.544) rotate(90)">
					<title>工作表.71</title>
					<path d="M0 841.89 L65.79 841.89" class="st20"/>
				</g>
			</g>
			<g id="shape72-197" v:mID="72" v:groupContext="shape" transform="translate(844.015,820.63) rotate(90)">
				<title>工作表.72</title>
				<path d="M0 841.89 L12.86 841.89" class="st21"/>
			</g>
		</g>
		<g id="group73-203" transform="translate(285.534,-314.613)" v:mID="73" v:groupContext="group">
			<title>工作表.73</title>
			<g id="group74-204" transform="translate(0,-21.2598)" v:mID="74" v:groupContext="group">
				<title>工作表.74</title>
				<g id="group75-205" transform="translate(-837.639,739.544) rotate(-90)" v:mID="75" v:groupContext="group"
						v:layerMember="0">
					<v:userDefs>
						<v:ud v:nameU="Circuit" v:val="VT0(0):26"/>
						<v:ud v:nameU="Fuse" v:val="VT0(0):26"/>
						<v:ud v:nameU="visVersion" v:val="VT0(15):26"/>
						<v:ud v:nameU="visDescription" v:val="VT4(隔离器)"/>
					</v:userDefs>
					<title>隔离器.100</title>
					<g id="shape76-206" v:mID="76" v:groupContext="shape" v:layerMember="0"
							transform="translate(-358.989,86.5481) rotate(-26.5651)">
						<title>工作表.76</title>
						<rect x="0" y="841.04" width="2.12533" height="0.850134" class="st13"/>
					</g>
					<g id="shape77-208" v:mID="77" v:groupContext="shape" v:layerMember="0" transform="translate(16.1507,-2.12533)">
						<title>工作表.77</title>
						<path d="M0 841.89 L4.25 839.76" class="st3"/>
					</g>
					<g id="shape78-211" v:mID="78" v:groupContext="shape" v:layerMember="0" transform="translate(0,-2.12533)">
						<title>工作表.78</title>
						<path d="M20.4 841.89 L36.55 841.89" class="st3"/>
						<path d="M0 841.89 L16.15 841.89" class="st3"/>
						<path d="M20.4 841.46 L20.4 842.31" class="st3"/>
					</g>
				</g>
				<g id="group79-216" transform="translate(-837.639,841.89) rotate(-90)" v:mID="79" v:groupContext="group"
						v:layerMember="0">
					<v:userDefs>
						<v:ud v:nameU="Circuit" v:val="VT0(0):26"/>
						<v:ud v:nameU="Fuse" v:val="VT0(0):26"/>
						<v:ud v:nameU="visVersion" v:val="VT0(15):26"/>
						<v:ud v:nameU="visDescription" v:val="VT4(隔离器)"/>
					</v:userDefs>
					<title>隔离器.120</title>
					<g id="shape80-217" v:mID="80" v:groupContext="shape" v:layerMember="0"
							transform="translate(-358.989,86.5481) rotate(-26.5651)">
						<title>工作表.80</title>
						<rect x="0" y="841.04" width="2.12533" height="0.850134" class="st13"/>
					</g>
					<g id="shape81-219" v:mID="81" v:groupContext="shape" v:layerMember="0" transform="translate(16.1507,-2.12533)">
						<title>工作表.81</title>
						<path d="M0 841.89 L4.25 839.76" class="st3"/>
					</g>
					<g id="shape82-222" v:mID="82" v:groupContext="shape" v:layerMember="0" transform="translate(0,-2.12533)">
						<title>工作表.82</title>
						<path d="M20.4 841.89 L36.55 841.89" class="st3"/>
						<path d="M0 841.89 L16.15 841.89" class="st3"/>
						<path d="M20.4 841.46 L20.4 842.31" class="st3"/>
					</g>
				</g>
				<g id="shape83-227" v:mID="83" v:groupContext="shape" transform="translate(844.015,739.544) rotate(90)">
					<title>工作表.83</title>
					<path d="M0 841.89 L65.79 841.89" class="st14"/>
				</g>
			</g>
			<g id="shape84-230" v:mID="84" v:groupContext="shape" transform="translate(844.015,820.63) rotate(90)">
				<title>工作表.84</title>
				<path d="M0 841.89 L12.86 841.89" class="st15"/>
			</g>
		</g>
		<g id="group87-235" transform="translate(182.417,-504.199)" v:mID="87" v:groupContext="group" v:layerMember="0">
			<v:custProps>
				<v:cp v:nameU="Label" v:lbl="标签" v:type="0" v:format="@" v:sortKey="" v:invis="false" v:ask="false" v:langID="2052"
						v:val="VT4()"/>
			</v:custProps>
			<v:userDefs>
				<v:ud v:nameU="CH1"/>
				<v:ud v:nameU="visVersion" v:val="VT0(15):26"/>
				<v:ud v:nameU="visDescription" v:val="VT4(带三个绕组的变压器。)"/>
			</v:userDefs>
			<title>三绕组变压器.400</title>
			<g id="shape88-236" v:mID="88" v:groupContext="shape" v:layerMember="0">
				<title>工作表.88</title>
				<path d="M15.98 831.15 A8.19271 8.19271 0 0 1 12.75 830.99 A8.19271 8.19271 -180 0 0 12.29 833.7 A8.19271 8.19271
							 -180 0 0 14.34 839.12 A8.19271 8.19271 -180 0 0 16.39 833.7 A8.19271 8.19271 -180 0 0 15.98 831.15 ZM15.98
							 831.15 A8.19271 8.19271 -180 0 0 14.34 828.28 A8.19271 8.19271 -180 0 0 12.75 830.99 A8.19271 8.19271
							 -180 0 0 15.98 831.15 ZM15.98 831.15 A8.19271 8.19271 0 0 1 16.39 833.7 A8.19271 8.19271 0 0 1 14.34
							 839.12 A8.19271 8.19271 -180 0 0 28.67 833.7 A8.19271 8.19271 -180 0 0 22.48 825.75 A8.19271 8.19271
							 0 0 1 15.98 831.15 ZM15.98 831.15 A8.19271 8.19271 -180 0 0 22.48 825.75 A8.19271 8.19271 -180 0 0 14.34
							 828.28 A8.19271 8.19271 0 0 1 15.98 831.15 ZM22.48 825.75 A8.19271 8.19271 -180 0 0 22.94 823.05 A8.19271
							 8.19271 -180 0 0 6.55 823.05 A8.19271 8.19271 -180 0 0 6.96 825.6 A8.19271 8.19271 0 0 1 14.34 828.28
							 A8.19271 8.19271 0 0 1 22.48 825.75 ZM12.75 830.99 A8.19271 8.19271 0 0 1 6.96 825.6 A8.19271 8.19271
							 -180 0 0 0 833.7 A8.19271 8.19271 -180 0 0 14.34 839.12 A8.19271 8.19271 0 0 1 12.29 833.7 A8.19271
							 8.19271 0 0 1 12.75 830.99 ZM12.75 830.99 A8.19271 8.19271 0 0 1 14.34 828.28 A8.19271 8.19271 -180
							 0 0 6.96 825.6 A8.19271 8.19271 -180 0 0 12.75 830.99 Z" class="st2"/>
				<path d="M15.98 831.15 A8.19271 8.19271 0 0 1 12.75 830.99 A8.19271 8.19271 -180 0 0 12.29 833.7 A8.19271 8.19271
							 -180 0 0 14.34 839.12 A8.19271 8.19271 -180 0 0 16.39 833.7 A8.19271 8.19271 -180 0 0 15.98 831.15"
						class="st3"/>
				<path d="M15.98 831.15 A8.19271 8.19271 -180 0 0 14.34 828.28 A8.19271 8.19271 -180 0 0 12.75 830.99 A8.19271 8.19271
							 -180 0 0 15.98 831.15" class="st3"/>
				<path d="M15.98 831.15 A8.19271 8.19271 0 0 1 16.39 833.7 A8.19271 8.19271 0 0 1 14.34 839.12 A8.19271 8.19271 -180
							 0 0 28.67 833.7 A8.19271 8.19271 -180 0 0 22.48 825.75 A8.19271 8.19271 0 0 1 15.98 831.15"
						class="st3"/>
				<path d="M15.98 831.15 A8.19271 8.19271 -180 0 0 22.48 825.75 A8.19271 8.19271 -180 0 0 14.34 828.28 A8.19271 8.19271
							 0 0 1 15.98 831.15" class="st3"/>
				<path d="M22.48 825.75 A8.19271 8.19271 -180 0 0 22.94 823.05 A8.19271 8.19271 -180 0 0 6.55 823.05 A8.19271 8.19271
							 -180 0 0 6.96 825.6 A8.19271 8.19271 0 0 1 14.34 828.28 A8.19271 8.19271 0 0 1 22.48 825.75"
						class="st3"/>
				<path d="M12.75 830.99 A8.19271 8.19271 0 0 1 6.96 825.6 A8.19271 8.19271 -180 0 0 0 833.7 A8.19271 8.19271 -180
							 0 0 14.34 839.12 A8.19271 8.19271 0 0 1 12.29 833.7 A8.19271 8.19271 0 0 1 12.75 830.99" class="st3"/>
				<path d="M12.75 830.99 A8.19271 8.19271 0 0 1 14.34 828.28 A8.19271 8.19271 -180 0 0 6.96 825.6 A8.19271 8.19271
							 -180 0 0 12.75 830.99" class="st3"/>
				<path d="M14.34 814.85 L14.34 808.09" class="st3"/>
				<path d="M7.89 841.89 L7.89 848.65" class="st3"/>
				<path d="M20.79 841.89 L20.79 848.65" class="st3"/>
			</g>
		</g>
		<g id="group89-248" transform="translate(355.897,-504.199)" v:mID="89" v:groupContext="group" v:layerMember="0">
			<v:custProps>
				<v:cp v:nameU="Label" v:lbl="标签" v:type="0" v:format="@" v:sortKey="" v:invis="false" v:ask="false" v:langID="2052"
						v:val="VT4()"/>
			</v:custProps>
			<v:userDefs>
				<v:ud v:nameU="CH1"/>
				<v:ud v:nameU="visVersion" v:val="VT0(15):26"/>
				<v:ud v:nameU="visDescription" v:val="VT4(带三个绕组的变压器。)"/>
			</v:userDefs>
			<title>三绕组变压器.402</title>
			<g id="shape90-249" v:mID="90" v:groupContext="shape" v:layerMember="0">
				<title>工作表.90</title>
				<path d="M15.98 831.15 A8.19271 8.19271 0 0 1 12.75 830.99 A8.19271 8.19271 -180 0 0 12.29 833.7 A8.19271 8.19271
							 -180 0 0 14.34 839.12 A8.19271 8.19271 -180 0 0 16.39 833.7 A8.19271 8.19271 -180 0 0 15.98 831.15 ZM15.98
							 831.15 A8.19271 8.19271 -180 0 0 14.34 828.28 A8.19271 8.19271 -180 0 0 12.75 830.99 A8.19271 8.19271
							 -180 0 0 15.98 831.15 ZM15.98 831.15 A8.19271 8.19271 0 0 1 16.39 833.7 A8.19271 8.19271 0 0 1 14.34
							 839.12 A8.19271 8.19271 -180 0 0 28.67 833.7 A8.19271 8.19271 -180 0 0 22.48 825.75 A8.19271 8.19271
							 0 0 1 15.98 831.15 ZM15.98 831.15 A8.19271 8.19271 -180 0 0 22.48 825.75 A8.19271 8.19271 -180 0 0 14.34
							 828.28 A8.19271 8.19271 0 0 1 15.98 831.15 ZM22.48 825.75 A8.19271 8.19271 -180 0 0 22.94 823.05 A8.19271
							 8.19271 -180 0 0 6.55 823.05 A8.19271 8.19271 -180 0 0 6.96 825.6 A8.19271 8.19271 0 0 1 14.34 828.28
							 A8.19271 8.19271 0 0 1 22.48 825.75 ZM12.75 830.99 A8.19271 8.19271 0 0 1 6.96 825.6 A8.19271 8.19271
							 -180 0 0 0 833.7 A8.19271 8.19271 -180 0 0 14.34 839.12 A8.19271 8.19271 0 0 1 12.29 833.7 A8.19271
							 8.19271 0 0 1 12.75 830.99 ZM12.75 830.99 A8.19271 8.19271 0 0 1 14.34 828.28 A8.19271 8.19271 -180
							 0 0 6.96 825.6 A8.19271 8.19271 -180 0 0 12.75 830.99 Z" class="st2"/>
				<path d="M15.98 831.15 A8.19271 8.19271 0 0 1 12.75 830.99 A8.19271 8.19271 -180 0 0 12.29 833.7 A8.19271 8.19271
							 -180 0 0 14.34 839.12 A8.19271 8.19271 -180 0 0 16.39 833.7 A8.19271 8.19271 -180 0 0 15.98 831.15"
						class="st3"/>
				<path d="M15.98 831.15 A8.19271 8.19271 -180 0 0 14.34 828.28 A8.19271 8.19271 -180 0 0 12.75 830.99 A8.19271 8.19271
							 -180 0 0 15.98 831.15" class="st3"/>
				<path d="M15.98 831.15 A8.19271 8.19271 0 0 1 16.39 833.7 A8.19271 8.19271 0 0 1 14.34 839.12 A8.19271 8.19271 -180
							 0 0 28.67 833.7 A8.19271 8.19271 -180 0 0 22.48 825.75 A8.19271 8.19271 0 0 1 15.98 831.15"
						class="st3"/>
				<path d="M15.98 831.15 A8.19271 8.19271 -180 0 0 22.48 825.75 A8.19271 8.19271 -180 0 0 14.34 828.28 A8.19271 8.19271
							 0 0 1 15.98 831.15" class="st3"/>
				<path d="M22.48 825.75 A8.19271 8.19271 -180 0 0 22.94 823.05 A8.19271 8.19271 -180 0 0 6.55 823.05 A8.19271 8.19271
							 -180 0 0 6.96 825.6 A8.19271 8.19271 0 0 1 14.34 828.28 A8.19271 8.19271 0 0 1 22.48 825.75"
						class="st3"/>
				<path d="M12.75 830.99 A8.19271 8.19271 0 0 1 6.96 825.6 A8.19271 8.19271 -180 0 0 0 833.7 A8.19271 8.19271 -180
							 0 0 14.34 839.12 A8.19271 8.19271 0 0 1 12.29 833.7 A8.19271 8.19271 0 0 1 12.75 830.99" class="st3"/>
				<path d="M12.75 830.99 A8.19271 8.19271 0 0 1 14.34 828.28 A8.19271 8.19271 -180 0 0 6.96 825.6 A8.19271 8.19271
							 -180 0 0 12.75 830.99" class="st3"/>
				<path d="M14.34 814.85 L14.34 808.09" class="st3"/>
				<path d="M7.89 841.89 L7.89 848.65" class="st3"/>
				<path d="M20.79 841.89 L20.79 848.65" class="st3"/>
			</g>
		</g>
		<g id="shape91-261" v:mID="91" v:groupContext="shape" transform="translate(-645.135,303.896) rotate(-90)">
			<title>工作表.91</title>
			<path d="M0 841.89 L12.6 841.89" class="st14"/>
		</g>
		<g id="shape92-264" v:mID="92" v:groupContext="shape" transform="translate(-558.386,307.848) rotate(-90.269)">
			<title>工作表.92</title>
			<path d="M0 841.89 L13.36 841.89" class="st14"/>
		</g>
		<g id="shape93-267" v:mID="93" v:groupContext="shape" transform="translate(-471.592,293.561) rotate(-89.2966)">
			<title>工作表.93</title>
			<path d="M0 841.89 L13.36 841.89" class="st14"/>
		</g>
		<g id="shape94-270" v:mID="94" v:groupContext="shape" transform="translate(1045.09,346.454) rotate(90.1364)">
			<title>工作表.94</title>
			<path d="M0 841.89 L21.63 841.89" class="st14"/>
		</g>
		<g id="shape95-273" v:mID="95" v:groupContext="shape" transform="translate(1131.79,335.421) rotate(89.3856)">
			<title>工作表.95</title>
			<path d="M0 841.89 L21.63 841.89" class="st14"/>
		</g>
		<g id="shape96-276" v:mID="96" v:groupContext="shape" transform="translate(1218.58,344.45) rotate(90)">
			<title>工作表.96</title>
			<path d="M0 841.89 L22.24 841.89" class="st14"/>
		</g>
		<g id="shape97-279" v:mID="97" v:groupContext="shape" transform="translate(452.603,1264.12) rotate(180)">
			<title>三角形</title>
			<v:userDefs>
				<v:ud v:nameU="visVersion" v:val="VT0(15):26"/>
				<v:ud v:nameU="visMasterStencil" v:prompt="" v:val="VT4(Basic_M.vssx)"/>
			</v:userDefs>
			<path d="M10.49 841.89 L5.22 825.43 L0 841.89 L10.49 841.89 Z" class="st17"/>
		</g>
		<g id="shape98-281" v:mID="98" v:groupContext="shape" transform="translate(-394.54,421.77) rotate(-90)">
			<title>工作表.98</title>
			<path d="M0 841.89 L54.65 841.89" class="st14"/>
		</g>
	</g>
</svg>
